<mxfile host="app.diagrams.net" modified="2024-05-17T04:45:50.258Z" agent="Mozilla/5.0 (Windows NT 10.0; Win64; x64) AppleWebKit/537.36 (KHTML, like Gecko) Chrome/124.0.0.0 Safari/537.36" etag="DUdMTaYrLf5QZ-hLlmvM" version="24.4.3" type="google">
  <diagram name="Page-1" id="wZ_uZkJ0nPYNn_4YU_0G">
    <mxGraphModel grid="1" page="1" gridSize="10" guides="1" tooltips="1" connect="1" arrows="1" fold="1" pageScale="1" pageWidth="850" pageHeight="1100" math="0" shadow="0">
      <root>
        <mxCell id="0" />
        <mxCell id="1" parent="0" />
        <mxCell id="VlH2U5jQnZxu1E93qzGH-1" value="User Input" style="whiteSpace=wrap;html=1;aspect=fixed;" vertex="1" parent="1">
          <mxGeometry x="320" y="220" width="80" height="80" as="geometry" />
        </mxCell>
        <mxCell id="VlH2U5jQnZxu1E93qzGH-4" value="" style="endArrow=classic;html=1;rounded=0;" edge="1" parent="1" source="VlH2U5jQnZxu1E93qzGH-1">
          <mxGeometry relative="1" as="geometry">
            <mxPoint x="400" y="260" as="sourcePoint" />
            <mxPoint x="500" y="260" as="targetPoint" />
          </mxGeometry>
        </mxCell>
        <mxCell id="VlH2U5jQnZxu1E93qzGH-6" value="Computing&amp;nbsp;&lt;div&gt;Unit&lt;/div&gt;" style="whiteSpace=wrap;html=1;aspect=fixed;" vertex="1" parent="1">
          <mxGeometry x="500" y="220" width="80" height="80" as="geometry" />
        </mxCell>
        <mxCell id="VlH2U5jQnZxu1E93qzGH-8" value="" style="endArrow=classic;html=1;rounded=0;" edge="1" parent="1">
          <mxGeometry relative="1" as="geometry">
            <mxPoint x="580" y="259.5" as="sourcePoint" />
            <mxPoint x="680" y="259.5" as="targetPoint" />
          </mxGeometry>
        </mxCell>
        <mxCell id="VlH2U5jQnZxu1E93qzGH-9" value="Output&lt;div&gt;&lt;br&gt;&lt;/div&gt;" style="whiteSpace=wrap;html=1;aspect=fixed;align=center;" vertex="1" parent="1">
          <mxGeometry x="680" y="220" width="80" height="80" as="geometry" />
        </mxCell>
      </root>
    </mxGraphModel>
  </diagram>
</mxfile>
